<?xml version="1.0" encoding="UTF-8"?>
<!-- Generator: Adobe Illustrator 25.2.1, SVG Export Plug-In . SVG Version: 6.00 Build 0)  -->
<svg xmlns="http://www.w3.org/2000/svg" xmlns:xlink="http://www.w3.org/1999/xlink" version="1.1" id="Capa_1" x="0px" y="0px" viewBox="0 0 512 512" style="enable-background:new 0 0 512 512;" xml:space="preserve" width="512" height="512">
<g>
	<path style="fill:#FFFFFF;" d="M25.851,288.995c7.086,2.008,15.872,4.287,25.464,6.612c0.152,3.511,0.43,6.981,0.839,10.4   c-8.378,0.83-16.063,1.71-22.414,2.575c-5.039,0.685-9.066,1.34-11.968,1.942c-15.526,3.229-16.375,13.357-16.019,17.559   c0.582,6.897,5.513,12.375,12.564,13.954c7.196,1.611,31.575,0.122,47.397-1.083c1.731,3.766,3.669,7.357,5.798,10.769   c-0.365,0.241-0.727,0.488-1.075,0.759c-0.983,0.739-2.284,1.854-3.552,3.56l-0.675,0.911c-1.289,1.747-2.76,3.918-4.619,6.831   l-0.819,1.24c-0.259,0.394-0.46,0.706-0.503,0.772c-0.14,0.188-0.275,0.379-0.405,0.574c-1.874,2.78-5.139,7.184-9.702,13.093   c-5.277,6.836-8.663,11.458-10.937,14.936c-2.361,3.475-3.31,7.656-2.68,11.846c0.666,4.417,3.119,8.479,6.69,11.11   c2.742,2.036,6.087,3.171,9.422,3.273c1.142,4.192,3.807,7.731,7.476,9.954c1.578,0.965,3.291,1.658,5.093,2.061   c1.333,0.298,2.668,0.379,3.991,0.355c0.447,0.882,0.921,1.671,1.377,2.311c2.243,3.228,5.478,5.945,9.869,8.292   c0.466,0.264,1.07,0.59,1.803,0.975l1.078,0.568c0.076,0.04,0.149,0.079,0.224,0.118l1.468,0.743   c1.488,0.863,3.09,1.49,4.769,1.866c1.947,0.436,3.902,0.484,5.801,0.243c1.861,2.881,4.599,5.232,8.034,6.565   c1.889,0.736,3.914,1.116,5.875,1.132c2.268,2.499,5.29,4.325,8.746,5.099c1.65,0.369,3.345,0.487,5.045,0.35   c0.122-0.01,0.239-0.035,0.36-0.047c2.132,3.326,5.414,5.927,9.482,7.089c1.947,0.562,4.067,0.767,6.006,0.613   c2.12,1.947,4.744,3.361,7.659,4.015c2.159,0.483,4.361,0.535,6.546,0.157c0.043-0.007,0.083-0.021,0.126-0.028   c1.197,1.634,2.676,3.067,4.401,4.188c1.716,1.135,3.597,1.938,5.602,2.387c0.002,0,0.002,0,0.002,0   c6.975,1.561,14.116-1.465,17.884-7.54l8.338-13.278c-0.341,5.154-0.017,9.296,0.932,12.839c2.504,9.68,9.162,16.616,17.811,18.552   l0.002,0.001c1.677,0.375,3.402,0.547,5.105,0.511c4.552-0.093,8.802-1.568,12.412-4.134c2.329,2.909,5.611,5.058,9.451,5.918   l0.002,0c1.067,0.239,2.165,0.374,3.305,0.402c2.586,0.056,5.049-0.477,7.266-1.476c3.353,1.547,7.434,1.964,11.109,1.047   c2.079-0.514,4-1.403,5.697-2.598c1.364,0.745,2.837,1.323,4.406,1.674c0,0,0,0,0.002,0.001c2.221,0.497,4.483,0.542,6.723,0.131   c2.009-0.367,3.897-1.082,5.6-2.099c4.952,1.421,10.3,0.489,14.454-2.497c1.562,0.96,3.28,1.701,5.141,2.118   c2.192,0.491,4.428,0.539,6.609,0.148c4.202-0.744,7.877-3.016,10.445-6.398c1.129,0.428,2.288,0.785,3.482,1.053   c3.11,0.696,6.28,0.789,9.442,0.272c7.013-1.155,13.024-5.308,16.494-11.394c0.317-0.555,0.573-1.141,0.843-1.719   c1.326,0.708,2.745,1.262,4.255,1.6c3.755,0.841,7.736,0.373,11.222-1.324c3.954-1.931,6.783-5.25,8.237-9.098   c1.605,1.014,3.384,1.773,5.296,2.2c3.811,0.853,7.838,0.357,11.304-1.378c3.09-1.538,5.574-3.942,7.195-6.919   c4.253,0.879,8.612,0.105,12.277-2.171c2.113-1.306,3.859-3.037,5.186-5.053c1.963-0.201,3.886-0.726,5.657-1.604   c2.868-1.416,5.284-3.631,6.957-6.318c2.73-0.163,5.387-0.991,7.742-2.441c3.549-2.166,6.105-5.501,7.307-9.45   c4.247-0.068,8.403-1.167,12.1-3.3c6.149-3.558,10.303-9.566,11.398-16.481c1.215-7.679-1.455-15.831-7.338-22.377   c-3.566-3.961-7.57-6.824-12.158-8.679c0.041-0.551,0.048-1.107,0.034-1.664c1.564,0.294,3.019,0.553,4.317,0.767   c5.75,0.947,21.022,3.464,24.635-10.782c1.044-4.09,1.875-14.221-12.91-19.96c-2.763-1.073-6.628-2.38-11.486-3.885   c-6.334-1.963-14.077-4.178-22.531-6.454c0.932-3.212,1.756-6.492,2.462-9.826c10.153-0.728,19.494-1.552,27.029-2.389   c5.215-0.579,9.379-1.146,12.377-1.686c15.22-2.738,16.95-11.958,16.628-17.21c-0.332-5.376-3.849-12.354-12.675-14.329   c-6.062-1.357-23.849-0.943-38.929-0.276c0.144-4.152,0.139-8.193-0.015-12.103c-0.002-0.064-0.004-0.128-0.009-0.191   c-0.16-3.936-0.475-7.765-0.937-11.398c5.706-2.617,10.715-5.008,14.795-7.064c3.522-1.775,6.196-3.222,8.173-4.421   c12.777-7.756,9.699-17.96,8.45-20.906c-1.919-4.52-6.094-7.96-10.888-9.033c-3.738-0.837-6.613-1.481-28.83,7.034   c-0.212-0.696-0.429-1.392-0.649-2.087c5.34-11.791,7.262-25.37,5.284-38.27c-0.702-4.584-1.873-9.187-3.492-13.739   c2.299-9.494,5.59-18.895,9.738-27.844c1.359,0.515,2.75,0.954,4.165,1.315c11.871,3.045,24.698,0.26,35.175-7.421   c5.767-4.227,10.319-9.606,13.351-15.614c7.144-0.972,13.854-4.031,19.174-8.934c7.98-7.35,11.677-17.894,10.143-28.931   c-0.911-6.542-3.859-12.635-8.18-17.568c3.328-6.561,4.735-14.154,3.522-21.673c-2.524-15.665-15.342-28.589-31.581-31.638   c-9.144-1.728-18.796-0.222-27.339,3.984c-3.174-2.035-6.698-3.521-10.447-4.361c-9.395-2.103-19.23,0.113-26.985,6.08   c-4.534,3.488-7.972,8.15-10.125,13.36c-45.339-7.724-92.24,1.899-130.009,26.945c-14.871,9.864-30.027,21.138-41.118,36.81   c-9.226,3.719-17.48,8.709-24.469,14.732C193.503,93.7,171.281,70.073,147.92,64.844c-31.513-7.054-46.174,19.658-51.012,31.468   c-0.883,2.153-1.786,4.239-2.672,6.292c-4.173,9.654-8.487,19.637-9.462,32.424c-1.14,14.873-0.11,29.703,3.059,44.171   c-1.938,2.792-4.732,6.527-6.338,8.676c-1.231,1.644-2.372,3.171-3.3,4.444c-0.031,0.042-0.27,0.378-0.3,0.421l-1.012,1.432   l12.567,8.598l-12.752-8.33l-0.431,0.636c-0.458,0.696-0.819,1.302-1.11,1.826c-1.192,2.184-2.341,4.395-3.452,6.611   c-16.541-9.657-20.082-10.449-21.978-10.874c-6.654-1.489-13.248,1.147-16.796,6.719c-8.14,12.778,4.466,22.028,11.996,27.555   c3.536,2.594,7.897,5.655,12.885,9.043c-2.192,7.172-3.849,15.038-4.963,23.553c-8.094-1.706-15.451-3.14-21.393-4.164   c-4.571-0.788-8.25-1.323-10.931-1.59c-15.309-1.523-19.144,7.786-20.084,11.86c-1.18,5.125-0.992,14.497,13.541,19.697   C16.836,286.333,20.828,287.573,25.851,288.995z"/>
	<g>
		<g>
			<path style="fill:#176592;" d="M74.764,364.874c0.19-0.259,0.4-0.404,0.607-0.55c0.304-0.275,0.753-0.341,1.22-0.296     c1.013,0.252,1.627,0.908,1.745,2.097c0.017,0.111-0.03,0.176,0.004,0.401c0,0,0.16-0.081,0.191-0.258     c-0.125,0.708-0.171,1.174-0.231,1.93c0.028,2.522-0.295,5.384-0.998,9.164l-0.702,4.181c-0.046,0.467-0.139,0.997-0.346,1.545     c-0.172,0.772,0.903,0.67,2.041-0.187l0.831-0.583c5.028-3.673,8.47-6.021,10.411-6.883l0.16-0.08     c0.047-0.065,0.207-0.146,0.256-0.211c0.095-0.129,0.832-0.582,1.058-0.616c0.111-0.016,0.111-0.016,0.111-0.016     c1.557-0.346,2.448,1.016,2.277,2.19c-0.079,0.241-0.157,0.482-0.237,0.724c-0.176,0.37-0.398,0.805-0.668,1.305     c-1.003,1.757-3.556,5.465-6.093,8.885l-7.229,9.742c-1.39,1.871-5.059,6.952-6.91,9.58c-1.85,2.629-4.417,6.627-6.41,9.851     c-0.461,0.758-1.456,1.02-2.214,0.558c-0.757-0.463-1.019-1.458-0.557-2.215c2.039-3.288,4.606-7.287,6.457-9.915     c1.803-2.565,5.712-7.967,7.053-9.774l7.229-9.743c0.622-0.838,1.228-1.789,1.898-2.693c2.346-3.161-1.24-0.62-2.537,0.319     c-0.672,0.501-1.392,1.067-2.177,1.585l-4.771,3.464c-0.672,0.501-1.137,0.857-1.505,1.084c-0.048,0.064-0.16,0.081-0.256,0.21     s-0.32,0.162-0.529,0.308c-0.112,0.017-0.112,0.017-0.16,0.081c0,0-0.369,0.227-1.028,0.038     c-0.483-0.158-0.887-0.558-1.098-1.216c-0.017-0.112-0.034-0.225-0.003-0.402l-0.033-0.224l0.063-0.355     c-0.017-0.112,0.062-0.353,0.14-0.595l0.586-1.867c0.569-1.979,0.866-3.459,1.005-4.456c0.015-0.289,0.296-1.881,0.795-4.712     c0.172-1.174,0.359-2.235,0.451-3.168c0.125-0.708,0.275-2.797,0.227-2.733c-0.527,0.71-1.276,1.855-2.218,3.257     c-0.941,1.403-1.546,2.355-1.881,2.806c-2.121,3.128-5.616,7.838-10.437,14.065c-4.677,6.034-8.124,10.679-10.229,13.92     c-0.527,0.71-1.523,0.972-2.231,0.445c-0.711-0.527-0.972-1.521-0.446-2.231c2.153-3.306,5.648-8.015,10.374-14.114     c4.772-6.162,8.219-10.808,10.293-13.871c0.335-0.452,0.941-1.403,1.882-2.805c1.865-2.919,3.141-4.773,4.098-6.063     L74.764,364.874z"/>
			<path style="fill:#176592;" d="M106.179,385.894c-0.755-0.459-1.167-0.709-1.209-0.641c-0.305,0.192-0.624,0.561-1.026,1.069     c-1.5,2.004-2.991,4.765-4.859,8.613c-0.908,1.8-1.506,2.94-1.715,3.284c-0.252,0.412-0.71,1.167-1.42,2.334     c-0.653,0.919-0.464,1.693,0.428,2.235c0.687,0.418,1.236,0.752,1.827,1.017c0.755,0.459,1.109,1.426,0.648,2.182     c-0.458,0.754-1.424,1.107-2.18,0.648c-0.591-0.265-1.347-0.725-2.102-1.184c-0.892-0.542-1.665-0.354-2.276,0.497     c-4.047,6.192-7.399,11.396-9.421,15.339c-0.64,1.209-1.113,2.144-1.284,2.887c-0.042,0.068-0.056,0.248-0.098,0.316     c-0.084,0.137,0.135,0.552,0.806,1.149c1.317,1.082,3.158,1.92,5.233,2.993c1.073,0.558,1.869,0.948,2.35,1.24     c0.755,0.46,0.997,1.454,0.538,2.209s-1.453,0.997-2.208,0.538c-0.412-0.25-1.141-0.599-2.143-1.115     c-1.279-0.682-2.213-1.156-2.693-1.449c-2.349-1.24-3.941-2.49-4.774-3.749c-0.684-0.886-0.484-1.987-0.064-3.142     c0.253-0.881,0.742-1.995,1.466-3.341c2.272-4.355,6.041-10.245,9.002-14.652c1.446-2.224,2.642-4.036,3.671-5.574     c0.986-1.469,1.613-2.499,1.947-3.049c0.167-0.274,0.682-1.277,1.548-3.008c1.952-3.985,3.652-7.09,5.193-9.163     c1.083-1.316,2.193-2.523,3.598-2.514c0.401-0.039,0.854,0.143,1.445,0.408l4.463,2.713c3.213,2.141,4.957,3.296,5.273,3.394     c0.864,0.432,1.149,1.357,0.758,2.154c-0.181,0.454-0.527,0.714-0.9,0.863c-0.441,0.108-0.869,0.037-1.254-0.104     c-0.384-0.14-2.265-1.377-5.615-3.602l-2.885-1.753L106.179,385.894z"/>
			<path style="fill:#176592;" d="M109.495,426.979c0.966-1.762,1.611-2.878,1.897-3.453c5.478-9.928,9.809-18.811,12.848-26.542     c0-0.18-0.001-0.36,0.035-0.612c0.177-0.898,0.967-1.403,1.866-1.224c6.47,1.424,10.322,5.225,11.087,10.182     c0.907,4.67-1.921,9.813-7.199,12.303c-2.692,1.263-5.458,1.951-8.295,2.064c-1.007,0.038-1.544,0.578-1.542,1.656     c0.075,2.191,0.045,4.959-0.128,8.193c0.037,0.826-0.21,3.306-0.596,7.511c-0.319,2.983-0.422,5.354-0.346,7.187     c0.11,1.041-0.536,1.618-1.471,1.691c-0.934,0.074-1.653-0.644-1.691-1.47c-0.148-2.047-0.044-4.599,0.237-7.69     c0.635-5.966,0.879-9.523,0.837-12.865c-0.003-1.617,0.134-4.599-1.941-0.427c-0.286,0.575-0.645,1.115-0.895,1.618     c-0.394,0.612-0.966,1.763-1.898,3.454c-0.931,1.69-1.647,2.95-2.148,3.777c-0.931,1.69-2.435,4.712-3.328,7.049     c-0.322,0.826-1.256,1.26-2.082,0.938c-0.827-0.322-1.261-1.255-0.939-2.082c0.93-2.409,2.576-5.718,3.543-7.481L109.495,426.979     z M119.283,416.145l-0.036-0.108c0.719,0.358,1.187,0.501,2.012,0.463c5.211-0.01,10.092-2.607,11.954-5.808     c0.932-1.691,1.288-3.308,0.889-4.853c-0.436-2.729-2.346-5.205-5.582-6.636c-0.935-0.465-1.689-0.032-2.119,0.831     c-1.716,4.171-3.899,8.918-6.619,14.385C119.281,415.426,119.139,416.073,119.283,416.145z"/>
			<path style="fill:#176592;" d="M136.471,439.828c0.803-1.843,1.343-3.013,1.576-3.612c4.553-10.387,8.059-19.628,10.382-27.605     c-0.016-0.179-0.033-0.358-0.021-0.611c0.096-0.912,0.837-1.486,1.748-1.391c6.574,0.831,10.757,4.266,11.969,9.135     c1.328,4.568-1.022,9.948-6.051,12.908c-2.567,1.502-5.259,2.439-8.076,2.81c-0.998,0.129-1.485,0.716-1.386,1.789     c0.276,2.177,0.497,4.935,0.619,8.172c0.112,0.82,0.092,3.312,0.09,7.535c-0.046,3,0.067,5.372,0.308,7.19     c0.205,1.028-0.386,1.66-1.31,1.818c-0.923,0.159-1.706-0.49-1.818-1.31c-0.333-2.026-0.463-4.576-0.464-7.68     c0.09-6,0.01-9.566-0.336-12.89c-0.15-1.611-0.284-4.594-1.972-0.25c-0.233,0.6-0.54,1.17-0.745,1.694     c-0.337,0.645-0.802,1.844-1.575,3.612c-0.774,1.769-1.374,3.088-1.797,3.957c-0.774,1.769-1.996,4.915-2.673,7.324     c-0.246,0.853-1.137,1.369-1.989,1.124c-0.853-0.245-1.369-1.135-1.124-1.988c0.707-2.485,2.045-5.93,2.848-7.774     L136.471,439.828z M145.234,428.147l-0.045-0.104c0.749,0.29,1.227,0.39,2.047,0.278c5.188-0.484,9.814-3.514,11.378-6.872     c0.773-1.769,0.982-3.412,0.444-4.914c-0.682-2.679-2.81-4.971-6.164-6.103c-0.973-0.378-1.685,0.121-2.034,1.02     c-1.331,4.311-3.073,9.238-5.285,14.93C145.168,427.431,145.085,428.088,145.234,428.147z"/>
			<path style="fill:#176592;" d="M183.868,433.438c-1.716,2.276-3.44,4.883-5.327,7.779l-4.647,7.133l-5.103,8.174l-4.733,7.442     c-0.468,0.789-1.449,1.017-2.214,0.471c-0.787-0.469-1.016-1.449-0.47-2.215c8.756-13.832,13.27-21.086,13.575-21.584     c-0.056-0.099-0.091-0.276-0.125-0.452c-0.294-2.25-0.94-5.931-1.94-11.045c-0.999-5.113-1.624-8.873-1.853-11.354     c-0.117-0.783,0.627-1.661,1.488-1.756c0.859-0.095,1.681,0.55,1.755,1.488c0.263,2.658,0.833,6.318,1.785,11.002     c0.392,2.193,0.793,4.056,1.068,5.466c0.199,1.389,0.518,2.646,2.035,0.481l2.063-2.93c0.262-0.344,0.95-1.321,1.965-2.874     c2.085-3.007,3.496-4.784,5.314-6.531c0.736-0.546,1.729-0.521,2.296,0.137c0.569,0.658,0.444,1.707-0.136,2.297     c-1.656,1.458-2.747,2.99-4.788,5.843L183.868,433.438z"/>
			<path style="fill:#176592;" d="M219.606,436.896c0.498-3.582,0.284-6.127-0.7-7.805c-0.654-1.145-1.564-1.596-2.812-1.364     c-2.988,0.477-6.779,4.413-8.268,10.453c-2.943,11.842-5.194,23.373-3.753,28.767c1.026,3.712,2.907,5.353,4.862,5.299     c1.874-0.064,3.811-1.742,4.867-5.247c0.2-0.863,1.154-1.299,2.018-1.098c0.864,0.201,1.299,1.154,1.098,2.018     c-1.369,4.597-4.448,7.495-8.027,7.566c-3.581,0.071-6.649-2.951-7.86-7.664c-1.708-6.403,0.734-18.719,3.656-30.401     c1.7-6.985,6.317-12.185,10.962-12.918c5.303-0.805,8.324,4.32,7.14,12.836c-0.121,0.877-0.937,1.494-1.812,1.372     c-0.876-0.122-1.493-0.937-1.371-1.813V436.896z"/>
			<path style="fill:#176592;" d="M237.954,451.658c-1.045-0.026-1.621,0.523-1.566,1.569c0.038,1.69-0.01,3.698,0.011,6.109     c0.079,6.674,0.11,11.98-0.009,16.799c-0.021,0.884-0.762,1.59-1.646,1.568s-1.589-0.763-1.567-1.646     c0.085-3.454,0.122-8.277,0.036-14.628c-0.094-12.622-0.246-12.947,0.295-21.936c0.267-4.335,0.345-7.548,0.316-9.639     c0.023-0.963,0.684-1.67,1.648-1.647c0.883,0.022,1.59,0.682,1.569,1.566c0.024,2.331-0.057,5.625-0.322,9.878     c-0.154,3.051-0.294,5.459-0.335,7.146c-0.026,1.044,0.523,1.62,1.567,1.645l7.551,0.185c1.044,0.026,1.621-0.523,1.727-1.565     c0.06-2.49,0.184-4.255,0.215-5.541c0.018-0.723,0.042-1.687,0.152-2.889c0.109-1.204,0.134-2.248,0.152-2.971     c0.035-1.446-0.072-3.619-0.601-4.999c-0.299-0.891,0.285-1.761,1.095-2.062c0.812-0.302,1.682,0.282,1.985,1.013     c0.598,1.863,0.774,4.52,0.734,6.126c-0.021,0.884-0.047,1.928-0.158,3.212c-0.112,1.283-0.133,2.166-0.146,2.649     c-0.036,1.526-0.188,4.416-0.368,8.511c-0.261,4.093-0.418,7.224-0.547,9.23c-0.273,7.87-0.085,13.341,0.561,16.491     c0.219,0.89-0.282,1.682-1.172,1.901c-0.889,0.219-1.68-0.283-1.9-1.172c-0.801-3.396-0.981-9.187-0.701-17.379     c0.119-1.524,0.246-3.45,0.299-5.619c0.108-1.123-0.442-1.699-1.485-1.725L237.954,451.658z"/>
			<path style="fill:#176592;" d="M263.948,462.906c-0.101-2.008-0.136-3.296-0.195-3.936c-0.539-11.327-1.509-21.163-2.975-29.341     c-0.093-0.153-0.189-0.306-0.29-0.538c-0.32-0.859,0.088-1.703,0.947-2.022c6.256-2.179,11.53-0.962,14.78,2.859     c3.221,3.501,3.509,9.364,0.32,14.251c-1.63,2.487-3.624,4.523-5.983,6.108c-0.836,0.56-1.011,1.302-0.445,2.219     c1.215,1.826,2.639,4.199,4.187,7.043c0.465,0.685,1.555,2.926,3.431,6.71c1.293,2.707,2.449,4.781,3.473,6.301     c0.641,0.83,0.393,1.659-0.364,2.212c-0.756,0.552-1.747,0.318-2.212-0.365c-1.199-1.667-2.448-3.893-3.83-6.673     c-2.588-5.414-4.244-8.572-6.032-11.396c-0.851-1.374-2.297-3.987-1.877,0.655c0.058,0.64,0.034,1.287,0.086,1.847     c-0.015,0.728,0.1,2.008,0.194,3.936c0.095,1.928,0.144,3.376,0.151,4.343c0.093,1.928,0.397,5.289,0.862,7.749     c0.159,0.873-0.409,1.731-1.282,1.89c-0.873,0.16-1.731-0.408-1.891-1.281c-0.471-2.54-0.804-6.221-0.904-8.229L263.948,462.906z      M266.603,448.547l-0.087-0.074c0.8-0.072,1.273-0.195,1.957-0.66c4.432-2.741,7.229-7.511,7.135-11.214     c-0.094-1.929-0.639-3.493-1.788-4.599c-1.802-2.096-4.726-3.204-8.233-2.725c-1.039,0.094-1.455,0.858-1.368,1.818     c0.725,4.453,1.355,9.64,1.905,15.721C266.225,447.935,266.443,448.561,266.603,448.547z"/>
			<path style="fill:#176592;" d="M291.473,425.055c1.376,6.367,2.87,15.242,4.391,26.561c0.384,2.625,0.989,6.026,1.999,10.336     c1.207,5.416,1.998,8.949,2.293,10.61c0.155,0.871-0.432,1.71-1.302,1.863c-0.87,0.155-1.709-0.43-1.863-1.301     c-0.268-1.503-1.044-4.956-2.264-10.452c-1.025-4.388-1.657-7.949-2.055-10.653c-1.642-11.542-3.03-20.273-4.335-26.243     c-0.154-0.87,0.337-1.775,1.208-1.929C290.414,423.692,291.319,424.185,291.473,425.055z"/>
			<path style="fill:#176592;" d="M317.23,430.054c-0.249-6.253-3.322-8.429-6.74-7.521c-3.669,0.893-6.477,4.717-5.859,9.541     c0.555,4.591,3.277,6.695,9.739,10.049c3.596,1.954,4.558,2.446,7.631,4.622c3.072,2.176,4.944,4.838,6.262,8.23     c2.898,7.461-0.093,13.411-5.828,14.354c-5.658,0.922-11.432-3.28-13.641-11.589c-0.227-0.854,0.286-1.738,1.14-1.966     c0.854-0.226,1.739,0.286,1.966,1.14c1.838,6.911,6.287,9.886,10.019,9.225c3.501-0.597,5.511-4.291,3.321-10.028     c-1.076-2.791-2.647-4.95-5.228-6.841c-2.582-1.891-3.663-2.519-7.14-4.338c-3.457-1.742-4.636-2.426-7.104-4.514     c-2.545-2.067-3.91-4.697-4.367-7.984c-0.778-6.362,3.196-11.742,8.264-13.007c5.612-1.408,10.465,2.456,10.836,10.422     c-0.005,0.917-0.658,1.589-1.553,1.661C318.052,431.582,317.38,430.929,317.23,430.054z"/>
			<path style="fill:#176592;" d="M344.483,410.055c0.314,0.827-0.001,1.806-0.827,2.119c-1.399,0.618-3.502,1.417-6.235,2.369     c-1.079,0.325-1.302,1.097-0.855,2.045c0.777,1.595,1.508,3.294,2.29,5.576c0.524,1.606,0.895,2.582,1.067,3.033     c0.77,2.028,1.893,5.211,3.427,9.7c2.964,8.931,5.504,15.615,8.385,20.709c0.389,0.798,0.177,1.824-0.62,2.213     c-0.798,0.389-1.823,0.177-2.213-0.62c-2.966-5.319-5.592-12.23-8.642-21.386c-1.534-4.489-2.657-7.672-3.342-9.474     c-0.257-0.676-0.657-1.728-1.18-3.334c-0.515-1.352-0.81-2.357-1.153-3.258c0.77,2.028-1.022-1.331-1.307-2.082     c-0.371-0.976-1.097-1.303-2.073-0.932c-1.502,0.571-2.854,1.085-3.923,1.663c-0.874,0.418-1.777,0.074-2.195-0.799     c-0.389-0.797-0.046-1.702,0.752-2.093c1.971-0.922,4.751-1.977,8.384-3.272c3.888-1.306,6.592-2.333,8.141-3.005     C343.19,408.913,344.17,409.229,344.483,410.055z"/>
			<path style="fill:#176592;" d="M352.32,407.566c-0.143-0.288-0.18-0.539-0.216-0.791c-0.108-0.396,0.037-0.827,0.288-1.222     c0.683-0.79,1.545-1.042,2.659-0.61c0.108,0.039,0.143,0.111,0.359,0.183c0,0,0-0.18-0.144-0.287     c0.575,0.427,0.971,0.679,1.617,1.074c2.264,1.114,4.671,2.695,7.726,5.031l3.413,2.515c0.395,0.252,0.827,0.575,1.221,1.007     c0.612,0.503,1.007-0.504,0.755-1.905l-0.144-1.006c-1.005-6.144-1.544-10.277-1.436-12.397v-0.179     c-0.037-0.072-0.037-0.251-0.071-0.323c-0.073-0.144-0.144-1.006-0.073-1.223c0.036-0.107,0.036-0.107,0.036-0.107     c0.396-1.545,2.012-1.725,2.983-1.042c0.179,0.18,0.359,0.36,0.538,0.539c0.251,0.324,0.54,0.719,0.863,1.186     c1.114,1.689,3.269,5.641,5.174,9.451l5.424,10.851c1.042,2.084,3.917,7.654,5.426,10.493c1.508,2.838,3.916,6.935,5.891,10.169     c0.467,0.754,0.252,1.76-0.502,2.228c-0.756,0.466-1.761,0.251-2.228-0.504c-2.012-3.306-4.419-7.402-5.928-10.241     c-1.473-2.767-4.527-8.696-5.532-10.708l-5.426-10.852c-0.467-0.934-1.043-1.904-1.545-2.91     c-1.761-3.522-1.114,0.826-0.863,2.407c0.144,0.827,0.324,1.725,0.431,2.66l0.934,5.821c0.144,0.826,0.251,1.401,0.288,1.832     c0.036,0.072,0,0.179,0.072,0.323c0.071,0.144-0.001,0.36,0.035,0.611c-0.036,0.108-0.036,0.108,0,0.18     c0,0,0.036,0.431-0.431,0.934c-0.358,0.359-0.899,0.539-1.581,0.431c-0.107-0.036-0.216-0.072-0.359-0.18l-0.216-0.072     l-0.287-0.215c-0.108-0.036-0.287-0.216-0.468-0.396l-1.4-1.365c-1.51-1.401-2.695-2.336-3.522-2.911     c-0.251-0.143-1.545-1.114-3.844-2.839c-0.97-0.682-1.833-1.329-2.623-1.832c-0.575-0.432-2.372-1.51-2.335-1.438     c0.395,0.791,1.078,1.976,1.904,3.45c0.826,1.473,1.401,2.443,1.652,2.946c1.833,3.306,4.456,8.553,7.832,15.667     c3.27,6.899,5.857,12.074,7.797,15.415c0.395,0.791,0.179,1.797-0.611,2.192c-0.792,0.395-1.797,0.18-2.192-0.611     c-1.976-3.413-4.6-8.66-7.904-15.63c-3.342-7.043-5.929-12.218-7.725-15.452c-0.251-0.503-0.826-1.473-1.652-2.946     c-1.761-2.983-2.839-4.959-3.556-6.396L352.32,407.566z"/>
			<path style="fill:#176592;" d="M398.316,392.782c8.147,9.895,15.455,20.116,21.969,30.731c0.463,0.753,0.224,1.748-0.529,2.21     c-0.753,0.463-1.748,0.225-2.209-0.529c-3.994-6.506-8.26-12.844-12.799-19.013c-0.616-0.848-1.347-0.965-2.279-0.487     c-1.797,0.913-3.551,1.896-5.304,2.878c-0.864,0.436-1.118,1.251-0.682,2.115c1.434,2.797,3.402,6.773,5.96,11.709     c2.809,5.346,4.342,8.459,4.668,9.296c0.393,0.795-0.066,1.738-0.861,2.131c-0.797,0.394-1.737-0.065-2.132-0.861     c-0.309-0.658-1.799-3.703-4.541-9.091c-6.169-12.051-10.443-20.552-12.935-27.225c-1.475-4.091-2.307-7.446-1.168-9.276     c2.047-3.424,5.251-2.657,7.949-0.258c1.183,1.159,2.465,2.635,3.804,4.358L398.316,392.782z M395.894,405.58     c1.37-0.841,2.782-1.612,4.262-2.426c1.001-0.52,1.254-1.336,0.598-2.253c-1.619-2.023-3.238-4.046-4.925-6.028     c-0.21-0.342-1.76-2.407-2.849-3.719c-0.835-0.901-1.934-1.924-2.85-2.494c-0.609-0.379-1.314-0.606-1.694,0.003     c-0.216,0.416-0.333,1.147-0.129,2.248c0.246,1.169,0.633,2.722,1.342,4.644c0.975,2.513,2.288,5.572,4.02,9.317     C394.189,405.873,394.893,406.1,395.894,405.58z"/>
			<path style="fill:#176592;" d="M420.742,377.881c-2.445-5.76-6.089-6.708-8.963-4.649c-3.117,2.133-4.39,6.702-2.105,10.996     c2.144,4.097,5.433,5.102,12.662,5.951c4.055,0.555,5.13,0.675,8.774,1.623c3.644,0.948,6.336,2.775,8.768,5.481     c5.35,5.951,4.658,12.574-0.372,15.485c-4.966,2.865-11.851,0.978-16.858-6.01c-0.514-0.719-0.348-1.728,0.371-2.243     c0.718-0.514,1.728-0.348,2.242,0.371c4.164,5.813,9.378,7.02,12.634,5.082c3.062-1.797,3.635-5.963-0.442-10.553     c-1.993-2.23-4.227-3.693-7.311-4.548c-3.084-0.855-4.316-1.059-8.212-1.53c-3.849-0.406-5.194-0.629-8.24-1.708     c-3.112-1.033-5.318-3.01-6.91-5.922c-2.977-5.674-1.165-12.112,3.128-15.088c4.749-3.303,10.654-1.405,13.822,5.913     c0.318,0.859-0.055,1.718-0.867,2.102C422.052,379.019,421.192,378.646,420.742,377.881z"/>
		</g>
		<g>
			<g>
				<path style="fill:#FF9334;" d="M230.591,135.884c6.914-26.712,26.428-42.453,48.345-56.988      c39.407-26.133,88.631-33.475,134.116-21.332c12.045,3.216,40.204,11.084,42.557,26.464c1.362,8.905-8.729,15.119-13.946,20.88      c-25.298,27.934-40.872,67.36-40.881,105.088"/>
			</g>
			<g>
				<path style="fill:#ED3B98;" d="M203.02,145.111c10.748-20.678,34.102-32.565,57.294-34.843      c23.193-2.279,46.393,3.699,68.473,11.154c18.074,6.102,36.059,13.373,51.181,25.002c15.122,11.628,27.25,28.154,30.141,47.009      c2.891,18.856-4.933,39.838-21.424,49.426"/>
			</g>
			<g>
				<path style="fill:#EADDCA;" d="M409.921,257.976c-2.364-9.218-4.811-18.776-7.959-27.819      c-1.253-3.598-12.451-23.008-11.421-25.315c6.158-13.792,9.986-28.615,11.328-43.658c1.131-12.684-2.494-23.199-5.282-35.453      c-13.813-60.712-83.922-7.869-92.698,29.29c1.134-4.799-106.383-10.743-106.272-8.798      c-2.546-38.095-63.01-101.749-86.619-44.135c-4.765,11.629-10.069,21.404-11.04,34.101c-1.151,15.059,0.188,30.31,3.994,44.927      c0.637,2.444-13.601,19.749-15.429,23.092c-4.593,8.401-8.578,17.428-12.426,26.131c-8.15,18.435-10.189,42.568-9.634,62.685      c0.582,21.107,6.384,42.684,19.927,58.883c27.793,33.244,70.709,46.343,111.925,52.983c10.229,1.648,20.624,2.755,31.104,3.42      c10.447,1.068,20.883,1.685,31.243,1.742c41.747,0.229,86.233-5.634,119.114-33.856c16.023-13.752,25.293-34.081,29.339-54.804      C412.971,301.639,414.928,277.501,409.921,257.976z"/>
			</g>
			<g>
				<path style="fill:#FF6FD8;" d="M156.232,150.125c8.396-1.452,16.838-2.628,25.303-3.525      c-5.426-16.053-16.266-30.331-30.529-39.725c-11.772-7.752-16.327,7.46-19.372,15.808c-4.126,11.31-6.521,23.234-7.094,35.251      C134.795,154.441,145.474,151.985,156.232,150.125z"/>
			</g>
			<g>
				<path style="fill:#75002C;" d="M409.921,257.976c-2.364-9.218-4.811-18.776-7.959-27.819      c-1.253-3.598-12.451-23.008-11.421-25.315c6.158-13.792,9.986-28.615,11.328-43.658c1.131-12.684-2.494-23.199-5.282-35.453      c-13.813-60.712-83.922-7.869-92.698,29.289c0.47-1.99-17.747-4.176-39.221-5.916c-6.819,17.165-11.377,35.122-12.086,53.526      c-1.134,29.426,8.603,60.168,30.369,80.003c26.981,24.588,69.228,28.391,102.612,13.626c9.891-4.375,18.986-10.2,27.237-17.087      C412.508,271.811,411.625,264.624,409.921,257.976z"/>
			</g>
			<g>
				<g>
					<path style="fill:#440028;" d="M203.093,182.87c1.515,7.778-8.103,16.196-21.483,18.802c-13.38,2.606-25.455-1.587-26.97-9.365       c-1.515-7.778,8.104-16.196,21.484-18.802C189.504,170.899,201.579,175.091,203.093,182.87z"/>
				</g>
				<g>
					<path style="fill:#440028;" d="M293.35,190.342c-2.774,7.423,5.33,17.308,18.099,22.079       c12.769,4.771,25.369,2.621,28.142-4.802c2.774-7.423-5.33-17.308-18.099-22.079       C308.723,180.769,296.123,182.919,293.35,190.342z"/>
				</g>
			</g>
			<g>
				<g>
					<g>
						<path style="fill:#53001F;" d="M237.785,312.667c0.912,0.076,2.183-6.284,2.839-14.205c0.656-7.92,0.448-14.402-0.464-14.478        s-2.183,6.284-2.839,14.204C236.665,306.109,236.873,312.591,237.785,312.667z"/>
					</g>
				</g>
				<g>
					<g>
						<path style="fill:#53001F;" d="M265.968,294.482c-0.532-0.203-1.764,3.595-5.854,8.111c-2.02,2.252-4.808,4.593-8.304,6.458        c-3.482,1.869-7.717,3.165-12.224,3.302c-4.509,0.061-8.797-1.047-12.357-2.761c-3.575-1.709-6.463-3.925-8.579-6.086        c-4.286-4.331-5.683-8.071-6.206-7.845c-0.332,0.057,0.282,4.265,4.467,9.416c2.064,2.55,5.067,5.193,8.948,7.244        c3.861,2.054,8.664,3.42,13.8,3.345c5.135-0.151,9.873-1.727,13.641-3.949c3.788-2.22,6.671-4.993,8.621-7.631        C265.875,298.756,266.302,294.524,265.968,294.482z"/>
					</g>
				</g>
			</g>
			<g>
				<path style="fill:#FF6FD8;" d="M266.327,252.971c-7.328-3.23-15.113-4.317-22.996-5.131c-7.951-0.821-16.1-0.737-23.882,1.25      c-17.645,4.504-4.661,25.828,2.796,33.271c4.536,4.527,10.456,7.957,16.839,8.439c0.169,0.024,0.338,0.021,0.508,0.041      c0.17,0.008,0.337,0.039,0.53,0.042c6.353,0.575,12.756-1.834,17.975-5.554C266.677,279.213,282.991,260.315,266.327,252.971z"/>
			</g>
			<g>
				<g>
					<path style="fill:#C93CA2;" d="M264.663,274.396c-2.998-0.866-6.644-0.668-9.901,0.958c-3.303,1.554-5.617,4.721-6.331,7.735       c-0.679,2.601-0.564,4.995-0.245,7.002c0.651-0.176,1.296-0.37,1.935-0.594c-0.074-1.77,0.032-3.742,0.657-5.727       c0.745-2.472,2.498-4.751,5.17-6.043c2.631-1.316,5.623-1.559,8.105-0.964c0.827,0.19,1.589,0.473,2.319,0.789       c0.498-0.587,0.984-1.191,1.456-1.807C266.871,275.21,265.838,274.727,264.663,274.396z"/>
				</g>
				<g>
					<path style="fill:#C93CA2;" d="M231.239,288.687c0.645-1.927,1.153-4.269,0.91-6.946c-0.208-3.091-1.97-6.594-4.972-8.671       c-2.946-2.139-6.51-2.933-9.609-2.573c-1.214,0.133-2.312,0.439-3.343,0.809c0.364,0.685,0.744,1.36,1.139,2.022       c0.772-0.191,1.57-0.345,2.417-0.396c2.546-0.179,5.457,0.553,7.836,2.284c2.422,1.714,3.777,4.25,4.105,6.811       c0.289,2.06,0.07,4.023-0.294,5.756C230.021,288.109,230.626,288.406,231.239,288.687z"/>
				</g>
			</g>
			<g>
				<path style="fill:#FFEFFF;" d="M259.324,260.839c-0.342,4.129-8.871,6.793-19.051,5.95c-10.18-0.843-18.156-4.873-17.813-9.002      c0.342-4.129,8.871-6.793,19.051-5.95C251.691,252.68,259.666,256.71,259.324,260.839z"/>
			</g>
			<g>
				<path style="fill:#ED3B98;" d="M473.063,112.093c13.146,3.696,27.313-5.329,25.268-20.035      c-1.235-8.879-9.521-16.229-18.484-16.396c9.323-2.528,15.415-12.985,13.878-22.522c-1.537-9.537-9.881-17.304-19.373-19.096      c-9.492-1.793-19.612,1.988-26.367,8.893c-5.115-9.913-17.388-12.933-26.29-6.083c-6.656,5.122-8.785,15.287-4.743,22.649      c-12.079-1.457-23.922,10.21-22.646,22.31c1.277,12.1,15.293,21.039,26.803,17.093c-6.279,14.386,2.997,33.329,18.212,37.191      C454.535,139.959,471.722,127.733,473.063,112.093z"/>
			</g>
			<g>
				<g>
					<path style="fill:#440028;" d="M197.938,245.429c-0.653,7.884-7.573,13.746-15.457,13.094       c-7.884-0.653-13.746-7.573-13.094-15.457c0.653-7.884,7.573-13.746,15.457-13.094       C192.728,230.624,198.59,237.544,197.938,245.429z"/>
				</g>
				<g>
					<path style="fill:#440028;" d="M316.699,255.261c-0.653,7.884-7.573,13.746-15.457,13.094       c-7.884-0.653-13.747-7.573-13.094-15.457c0.653-7.884,7.573-13.746,15.457-13.093       C311.489,240.456,317.351,247.376,316.699,255.261z"/>
				</g>
			</g>
			<g>
				<path style="fill:#FF6FD8;" d="M344.237,165.69c-8.043-2.813-16.176-5.361-24.378-7.638      c7.992-14.942,21.032-27.243,36.646-34.163c12.887-5.711,14.878,10.044,16.509,18.778c2.209,11.834,2.611,23.99,1.2,35.938      C364.673,173.473,354.543,169.294,344.237,165.69z"/>
			</g>
			<g>
				<g>
					<path style="fill:#E5D7C6;" d="M404.474,317.202c-40.184,9.201-78.98,23.851-119.248,32.681       c-40.267,8.83-83.307,11.556-121.925-2.869c-38.618-14.425-71.645-49-74.768-90.106c-1.442-18.977,3.34-37.93,2.95-56.955       c-1.425,1.926-2.537,3.477-2.962,4.255c-4.593,8.401-8.578,17.428-12.426,26.131c-8.15,18.435-10.189,42.568-9.634,62.685       c0.582,21.107,6.384,42.684,19.927,58.883c27.793,33.244,70.709,46.343,111.925,52.983c10.229,1.648,20.624,2.755,31.104,3.42       c10.447,1.068,20.883,1.685,31.243,1.742c41.747,0.229,86.233-5.634,119.114-33.856c16.023-13.752,25.293-34.081,29.339-54.804       c0.346-1.772,0.67-3.589,0.982-5.425C408.213,316.365,406.338,316.776,404.474,317.202z"/>
				</g>
			</g>
			<g>
				<g>
					<path style="fill:#FFF3E6;" d="M347.353,305.008c0.975,4.591,3.505,8.73,7.724,10.574c5.055,2.21,11.186,0.431,15.37-3.166       c4.184-3.596,6.748-8.707,8.769-13.84c0,0-10.58,1.327-19.548,2.907C352.951,302.667,347.353,305.008,347.353,305.008z"/>
				</g>
			</g>
			<path style="fill:#930C3D;" d="M375.712,218.304c-3.039-6.097-6.096-11.729-13.815-10.447c-6.215,1.032-9.291,5.647-9.703,11.771     c-0.458,6.812,2.186,13.392,3.786,20.03c3.044,12.627,2.28,26.147-2.166,38.352c-2.39,6.562-5.841,12.849-6.745,19.774     c-0.302,2.313-0.213,4.752,0.265,7.082c10.816-0.343,21.614-2.36,31.773-6.021c0.036-0.09,0.074-0.179,0.11-0.268     C389.322,272.912,388.016,242.99,375.712,218.304z"/>
			<g>
				<g>
					<g>
						<g>
							<path style="fill:#440028;" d="M444.469,240.547c-0.573-1.348-22.725,6.775-49.479,18.142         c-26.753,11.367-47.976,21.675-47.404,23.023c0.573,1.348,22.725-6.775,49.477-18.142         C423.817,252.203,445.041,241.895,444.469,240.547z"/>
						</g>
					</g>
					<g>
						<g>
							<path style="fill:#440028;" d="M464.434,306.221c-0.09-1.462-24.011-1.189-53.43,0.608         c-29.419,1.798-53.195,4.44-53.105,5.902c0.089,1.462,24.01,1.189,53.429-0.609         C440.746,310.325,464.523,307.683,464.434,306.221z"/>
						</g>
					</g>
					<g>
						<g>
							<path style="fill:#440028;" d="M453.311,362.929c0.361-1.419-21.68-8.248-49.23-15.253         c-27.549-7.005-50.175-11.532-50.536-10.113c-0.361,1.419,21.68,8.248,49.229,15.253         C430.324,359.82,452.95,364.348,453.311,362.929z"/>
						</g>
					</g>
				</g>
				<g>
					<g>
						<g>
							<path style="fill:#440028;" d="M45.776,207.54c-0.787,1.235,18.453,14.893,42.973,30.506         c24.519,15.612,45.034,27.267,45.821,26.032c0.786-1.236-18.453-14.893-42.973-30.505         C67.078,217.959,46.563,206.304,45.776,207.54z"/>
						</g>
					</g>
					<g>
						<g>
							<path style="fill:#440028;" d="M15.282,269.036c-0.328,1.427,22.69,7.944,51.413,14.555         c28.722,6.611,52.273,10.814,52.602,9.386c0.328-1.427-22.69-7.944-51.412-14.555         C39.162,271.812,15.611,267.609,15.282,269.036z"/>
						</g>
					</g>
					<g>
						<g>
							<path style="fill:#440028;" d="M16.928,326.801c0.123,1.46,23.185,0.714,51.512-1.664c28.326-2.379,51.189-5.49,51.067-6.949         c-0.123-1.46-23.185-0.714-51.511,1.664C39.67,322.23,16.806,325.342,16.928,326.801z"/>
						</g>
					</g>
				</g>
			</g>
		</g>
	</g>
</g>















</svg>
